<svg xmlns="http://www.w3.org/2000/svg" fill="none" viewBox="0 0 415 76">
  <path fill="#F3F2F2" d="M80.2 48.8c.3 12.7-26.4 20.3-42 27.1 0 0 31.5-7 42.6-17 7.1-6.2 6.4-22.5-12-20-.2 0-.6.8-.8.8 0 0 12 .9 12.2 9.1z"/>
  <path fill="#F3F2F2" d="M19.6 25.2L14.9 24l-.5-2.2S49 38.5 86.4 1.4L87.9 0l-.3 2s-1.6 1.2-3.6 3.8C81 10 78 18 83 33.3l-1.7 1.2S80 24 74.7 27.2C71.7 29 70 39.1 70 39.1l-2.4.6s8.2-23-5.4-19.2c-12.1 3.3-17.8 13.3-21.7 54.7 0 .3-2.4.7-2.4.7s3.5-22.5-6.7-22c-8.4.4-23 21.4-23 21.4H5.2s39.5-43.2 14.4-50z"/>
  <path fill="#F3F2F2" d="M39.7 23.2c3.1 0 6.4-2.9 7.3-6.4.9-3.6-.8-6.4-3.9-6.4-3 0-6.3 2.8-7.2 6.4-1 3.5.8 6.4 3.8 6.4zM80.2 48.8c.3 12.7-26.4 20.3-42 27.1 0 0 31.5-7 42.6-17 7.1-6.2 6.4-22.5-12-20-.2 0-.6.8-.8.8 0 0 12 .9 12.2 9.1z"/>
  <path fill="#F3F2F2" d="M19.6 25.2L14.9 24l-.5-2.2S49 38.5 86.4 1.4A31 31 0 0087.9 0l-.4 2s-1.6 1.2-3.6 3.8c-3 4.2-6 12.3-1 27.5L81 34.5S80 24 74.6 27.2C71.6 29 70 39.1 70 39.1l-2.4.6s8.2-23-5.4-19.2c-12 3.4-17.7 13.3-21.7 54.7 0 .3-2.4.8-2.4.8s3.5-22.6-6.7-22c-8.4.3-23 21.4-23 21.4H5.2s39.5-43.3 14.4-50.2z"/>
  <path fill="#F3F2F2" d="M39.7 23.2c3.1 0 6.4-2.9 7.3-6.4.9-3.6-.8-6.4-3.9-6.4-3 0-6.3 2.8-7.2 6.4-1 3.5.8 6.4 3.8 6.4zM71.5 11.1c2.3-.9 4-3.6 3.5-6-.3-2.5-2.6-3.7-5-2.8-2.3.9-3.8 3.6-3.5 6 .4 2.5 2.6 3.7 5 2.8zM3.8 73.7c0 1-.9 1.8-2 1.8-1 0-1.8-.8-1.8-1.8s.8-2 1.9-2c1 0 1.9 1 1.9 2zm-3.6 0c0 1 .8 1.7 1.7 1.7 1 0 1.6-.8 1.6-1.7 0-1-.6-1.8-1.6-1.8s-1.7.8-1.7 1.8zm1.2-.1h.4c.3 0 .7 0 .7-.5 0-.3-.3-.4-.5-.4h-.6v.9zm-.2-1H2c.6 0 .8.2.8.5 0 .4-.2.6-.6.6l.7 1h-.3l-.6-1h-.6v1h-.2v-2.2zM105.5 41.5l1 .1c1.4 0 2.5-.5 2.5-1.8s-1.1-1.8-2.6-1.8h-1v3.5h.1zm0-5.6h1c1.4 0 2.2-.6 2.2-1.6s-.8-1.4-2-1.4h-1.3v3h.1zm-2.8-4.7c.8-.2 2.2-.3 3.7-.3 1.7 0 2.7.1 3.6.6 1 .5 1.5 1.4 1.5 2.5s-.6 2.1-2 2.6c1.4.4 2.5 1.6 2.5 3.1 0 1.2-.5 2-1.3 2.7-.9.7-2.4 1-4.9 1h-3V31.1zM114.5 34.4h2.8v9h-2.8v-9zm1.4-1.2c-1 0-1.6-.7-1.6-1.5s.6-1.5 1.6-1.5 1.6.7 1.6 1.5-.6 1.5-1.6 1.5zM126 38v-.5c-.3-.7-.8-1.2-1.6-1.2-1 0-1.9.9-1.9 2.5 0 1.4.7 2.4 1.8 2.4.8 0 1.3-.4 1.5-1l.1-.8V38zm2.8 4.2c0 1.7-.4 3.2-1.4 4.2-1 .8-2.3 1-3.7 1a7 7 0 01-3.2-.6l.5-2.2c.6.3 1.6.7 2.7.7 1.3 0 2.3-.7 2.3-2.4v-.6a3 3 0 01-2.4 1.2c-2.3 0-3.9-1.8-3.9-4.4 0-3 2-4.9 4.2-4.9 1.2 0 2 .6 2.5 1.3v-1h2.4v7.7zM139.2 41.5l1 .1c1.3 0 2.4-.5 2.4-1.8s-1.1-1.8-2.5-1.8h-1v3.5zm0-5.6h.9c1.5 0 2.2-.6 2.2-1.6s-.7-1.4-2-1.4H139v3zm-2.8-4.7c.7-.2 2.2-.3 3.6-.3 1.7 0 2.8.1 3.7.6.9.5 1.5 1.4 1.5 2.5s-.7 2.1-2 2.6c1.4.4 2.4 1.6 2.4 3.1 0 1.2-.5 2-1.2 2.7-1 .7-2.5 1-5 1h-3V31.1zM148.1 37.4v-3h2.4V36h.1a2.6 2.6 0 012.4-1.9l.6.1V37h-.7c-1 0-1.8.5-2 1.4V43.5H148l.1-6.1zM160 41.7c1.1 0 1.8-1.1 1.8-2.7 0-1.4-.5-2.7-1.8-2.7s-1.9 1.3-1.9 2.7c0 1.5.7 2.7 2 2.7zm0 2c-2.7 0-4.7-1.7-4.7-4.7s2-4.8 4.8-4.8 4.6 2 4.6 4.6c0 3.4-2.4 5-4.8 5zM170.3 31.9v2.5h2v2h-2v3.4c0 1.1.3 1.6 1 1.6h1v2c-.5.2-1.1.3-1.9.3a3 3 0 01-2.1-.7c-.5-.6-.8-1.5-.8-2.7v-3.8h-1.2v-2.1h1.2v-1.7l2.8-.8zM174.8 30.2h2.7v5.2l1.2-1c.4-.2 1-.3 1.4-.3 1.8 0 3.2 1.3 3.2 4v5.4h-2.8v-5c0-1.3-.4-2-1.5-2-.7 0-1.2.4-1.4.9v6.1h-2.8V30.2zM191.7 38c0-.8-.3-2-1.6-2-1.2 0-1.6 1.2-1.7 2h3.3zm-3.3 1.8c0 1.2 1.2 1.7 2.5 1.7 1 0 1.8-.1 2.5-.3l.4 2c-.9.3-2 .5-3.2.5-3.1 0-4.8-1.8-4.8-4.6 0-2.4 1.4-5 4.5-5 3 0 4.1 2.4 4.1 4.7v1h-6zM196.7 37.4v-3h2.4V36h.1a2.6 2.6 0 012.4-1.9l.6.1V37h-.7c-1 0-1.8.5-2 1.4V43.5h-2.8v-6.1zM204.5 41c.5.4 1.6.8 2.4.8.8 0 1.2-.3 1.2-.8 0-.4-.3-.7-1.3-1-1.9-.6-2.6-1.7-2.5-2.8 0-1.7 1.4-3 3.6-3 1.1 0 2 .3 2.6.6l-.4 2c-.4-.3-1.2-.6-2-.6-.7 0-1 .3-1 .7 0 .5.3.7 1.4 1.1 1.7.6 2.4 1.5 2.4 2.8 0 1.7-1.3 3-4 3-1.1 0-2.2-.4-2.9-.8l.5-2zM220.6 41.5l1 .1c1.3 0 2.5-.5 2.5-1.8s-1.2-1.8-2.6-1.8h-1v3.5h.1zm0-5.6h.9c1.5 0 2.3-.6 2.3-1.6s-.8-1.4-2-1.4h-1.3v3h.1zm-2.8-4.7c.8-.2 2.2-.3 3.6-.3 1.8 0 2.8.1 3.7.6 1 .5 1.5 1.4 1.5 2.5s-.7 2.1-2 2.6c1.4.4 2.5 1.6 2.5 3.1 0 1.2-.6 2-1.3 2.7-1 .7-2.4 1-4.9 1h-3V31.1zM229.6 34.4h2.7v9h-2.7v-9zm1.4-1.2c-1 0-1.6-.7-1.6-1.5s.6-1.5 1.6-1.5 1.6.7 1.6 1.5-.6 1.5-1.6 1.5zM241 38v-.5c-.2-.7-.8-1.2-1.5-1.2-1 0-1.9.9-1.9 2.5 0 1.4.7 2.4 1.8 2.4.8 0 1.3-.4 1.5-1V38h.2zm2.9 4.2c0 1.7-.4 3.2-1.4 4.2-1 .8-2.3 1-3.7 1a7 7 0 01-3.2-.6l.5-2.2c.6.3 1.6.7 2.6.7 1.4 0 2.4-.7 2.4-2.4v-.6a3 3 0 01-2.4 1.2c-2.3 0-3.9-1.8-3.9-4.4 0-3 1.9-4.9 4.2-4.9 1.2 0 2 .6 2.4 1.3l.1-1h2.4v7.7zM251.5 40.6c.8.4 2 .8 3.2.8 1.3 0 2-.5 2-1.4 0-.7-.7-1.2-2.2-1.7-2-.8-3.4-1.9-3.4-3.8 0-2.1 1.8-3.7 4.7-3.7a8 8 0 013.2.6l-.6 2.2c-.5-.2-1.4-.6-2.6-.6-1.2 0-1.8.6-1.8 1.2 0 .9.7 1.2 2.3 1.8 2.2.9 3.3 2 3.3 3.8 0 2.1-1.6 4-5 4-1.5 0-3-.5-3.6-.8l.5-2.4zM262 34.4h2.7v9h-2.8v-9zm1.3-1.2c-1 0-1.6-.7-1.6-1.5s.6-1.5 1.6-1.5 1.5.7 1.5 1.5c.1.8-.5 1.5-1.5 1.5zM267.6 41c.6.4 1.6.8 2.4.8.9 0 1.3-.3 1.3-.8 0-.4-.3-.7-1.3-1-2-.6-2.7-1.7-2.6-2.8 0-1.7 1.4-3 3.7-3 1 0 2 .3 2.6.6l-.5 2c-.4-.3-1.2-.6-2-.6-.6 0-1 .3-1 .7 0 .5.4.7 1.4 1.1 1.8.6 2.4 1.5 2.4 2.8 0 1.7-1.2 3-3.9 3-1.2 0-2.2-.4-3-.8l.5-2zM279.5 31.9v2.5h2v2h-2v3.4c0 1.1.3 1.6 1 1.6h1v2c-.5.2-1.1.3-1.9.3a3 3 0 01-2.1-.7c-.5-.6-.8-1.5-.8-2.7v-3.8h-1.2v-2.1h1.2v-1.7l2.8-.8zM289.2 38c0-.8-.3-2-1.5-2-1.3 0-1.7 1.2-1.8 2h3.3zm-3.3 1.8c.1 1.2 1.2 1.7 2.6 1.7 1 0 1.7-.1 2.5-.3l.3 2c-.9.3-2 .5-3.2.5-3 0-4.8-1.8-4.8-4.6 0-2.4 1.4-5 4.6-5 3 0 4 2.4 4 4.7v1h-6zM294.3 37.4l-.1-3h2.4V36h.2a2.6 2.6 0 012.4-1.9l.6.1V37h-.8c-1 0-1.7.5-2 1.4V43.5h-2.8v-6.1zM302 41c.5.4 1.5.8 2.4.8.8 0 1.2-.3 1.2-.8 0-.4-.3-.7-1.3-1-1.9-.6-2.6-1.7-2.6-2.8 0-1.7 1.5-3 3.7-3 1 0 2 .3 2.6.6l-.5 2c-.4-.3-1.2-.6-2-.6-.6 0-1 .3-1 .7 0 .5.4.7 1.4 1.1 1.8.6 2.5 1.5 2.5 2.8 0 1.7-1.3 3-4 3-1.2 0-2.2-.4-2.9-.8l.5-2zM319.4 41.7c1.1 0 1.8-1.1 1.8-2.7 0-1.4-.5-2.7-1.8-2.7s-1.9 1.3-1.9 2.7c.1 1.5.8 2.7 2 2.7zm0 2c-2.6 0-4.6-1.7-4.6-4.7s2-4.8 4.8-4.8 4.6 2 4.6 4.6c0 3.4-2.4 5-4.8 5zM327 43.5v-7h-1.3v-2.2h1.2V34c0-1 .3-2.3 1.2-3 .7-.7 1.6-1 2.5-1l1.5.2-.1 2.2-1-.2c-.8 0-1.2.8-1.2 1.7v.4h1.8v2.1h-1.8v7.2h-2.9zM341 36.5h1.1c1.5 0 2.3-.7 2.3-1.8s-.8-1.7-2.1-1.7H341v3.5zm-2.8-5.3c1-.2 2.3-.3 3.8-.3 1.9 0 3.2.3 4 1 .8.5 1.2 1.4 1.2 2.6 0 1.5-1.1 2.7-2.2 3v.1c1 .4 1.4 1.2 1.7 2.4.3 1.4.7 3 1 3.5h-3c0-.4-.4-1.4-.8-3-.3-1.5-.9-2-2-2h-.8v5h-2.8V31.2zM358.3 40.6v2.9H356l-.1-1.3h-.1c-.4.5-1.2 1.5-2.9 1.5-1.8 0-3.1-1.1-3.1-4v-5.3h2.8v4.9c0 1.3.4 2 1.4 2 .7 0 1.2-.4 1.4-.9l.1-.6v-5.4h2.8v6.2zM361.2 41c.5.4 1.6.8 2.4.8.8 0 1.2-.3 1.2-.8 0-.4-.3-.7-1.3-1-1.9-.6-2.6-1.7-2.5-2.8 0-1.7 1.4-3 3.7-3 1 0 2 .3 2.5.6l-.4 2c-.4-.3-1.2-.6-2-.6-.7 0-1 .3-1 .7 0 .5.3.7 1.4 1.1 1.7.6 2.4 1.5 2.4 2.8 0 1.7-1.3 3-4 3-1.1 0-2.2-.4-2.9-.8l.5-2zM369.8 41c.5.4 1.5.8 2.4.8.8 0 1.2-.3 1.2-.8 0-.4-.3-.7-1.3-1-1.9-.6-2.6-1.7-2.6-2.8 0-1.7 1.5-3 3.7-3 1 0 2 .3 2.6.6l-.5 2c-.3-.3-1.2-.6-2-.6-.6 0-1 .3-1 .7 0 .5.4.7 1.5 1.1 1.7.6 2.4 1.5 2.4 2.8 0 1.7-1.3 3-4 3-1.2 0-2.2-.4-2.9-.8l.5-2zM378.5 34.4h2.8v9h-2.8v-9zm1.4-1.2c-1 0-1.6-.7-1.6-1.5s.6-1.5 1.6-1.5 1.6.7 1.6 1.5-.6 1.5-1.6 1.5zM389 39.2c-1.5 0-2.6.4-2.6 1.4 0 .8.5 1 1.1 1 .7 0 1.3-.4 1.5-1v-1.4zm2.7 2.1c0 .8 0 1.7.2 2.2h-2.6l-.1-1c-.7.8-1.6 1.2-2.7 1.2-1.8 0-2.9-1.3-2.9-2.8 0-2.3 2.1-3.4 5.4-3.4v-.1c0-.5-.3-1.2-1.7-1.2a5 5 0 00-2.5.7l-.5-1.8c.6-.4 1.9-.9 3.5-.9 3 0 4 1.8 4 4v3.1zM111.2 64.6c-.6.3-1.8.6-3.2.6-2.9 0-5.6-1.8-5.6-6 0-3.6 2.3-6.3 6-6.3 1.6 0 2.5.3 2.8.5l-.3.7c-.6-.3-1.5-.5-2.5-.5-3.2 0-5.1 2-5.1 5.5 0 3.3 1.8 5.4 5 5.4 1 0 2-.2 2.6-.5l.3.6zM117.8 56.5v.8H115V65h-.8v-7.7h-2.8v-.8h6.3zM124.3 60.5c-1.8 0-4.3.2-4.3 2.3 0 1.2.9 1.8 1.7 1.8 1.4 0 2.2-1 2.5-1.8v-2.3h.1zm1 2.5v2h-.7l-.1-1.2c-.5.7-1.4 1.4-2.7 1.4-1.8 0-2.5-1.2-2.5-2.3 0-2 1.7-3.2 5.1-3v-.3c0-.8-.1-2.5-2.2-2.5a4 4 0 00-2 .6l-.3-.6c.7-.5 1.7-.7 2.5-.7 2.4 0 3 1.8 3 3.3V63h-.2zM129 61.7c0 .2 0 .5.2.7a3 3 0 002.7 2.2c2 0 3-1.6 3-3.9 0-1.9-1-3.6-2.9-3.6a3 3 0 00-2.8 2.3l-.1.7v1.6zm-.7-2.5l-.1-2.7h.8v1.6a3.4 3.4 0 013.2-1.8c2.2 0 3.7 1.8 3.7 4.3 0 3-1.8 4.6-3.9 4.6-1.2 0-2.2-.6-2.8-1.6v4.9h-.9v-9.3zM139.2 56.5v7.8h3.5v-7.8h.9v7.8h3.4v-7.8h.9V65h-9.5v-8.5h.8zM151.8 56.5v7.6l1.5-2.7 3.2-4.9h1V65h-.9v-4.2-3.4l-1.6 2.9-3.2 4.7h-.9v-8.5h.9zM166.3 60c0-1.2-.5-3-2.5-3s-2.7 1.7-2.8 3h5.3zm-5.4.7c0 2.7 1.5 3.8 3.2 3.8a5 5 0 002.4-.5l.2.7a6 6 0 01-2.6.5c-2.4 0-4-1.8-4-4.2 0-3 1.6-4.6 3.8-4.6 2.8 0 3.3 2.6 3.3 3.8v.5H161zM175.4 64.3l1.4.1a4 4 0 003-1.1c.4-.5.6-1.1.6-2 0-1.2-.5-2-1.2-2.4-.7-.4-1.6-.6-2.6-.6h-1.3v6zm5-11.3v.7h-5v4h1.5c1 0 2.1.2 2.9.6 1 .5 1.6 1.5 1.6 3 0 1-.4 1.8-1 2.4-.8 1-2.3 1.3-3.8 1.3h-2V53h5.9zM184.6 61.7v.7a3 3 0 002.9 2.2c2 0 3-1.6 3-3.9 0-1.9-1-3.6-3-3.6a3 3 0 00-2.7 2.3l-.2.7v1.6zm-.8-2.5v-2.7h.7l.1 1.6a3.4 3.4 0 013.2-1.8c2.2 0 3.6 1.8 3.6 4.3 0 3-1.8 4.6-3.8 4.6-1.3 0-2.3-.6-3-1.6v4.9h-.7v-9.3h-.1zM198.5 60.5c-1.8 0-4.3.2-4.3 2.3 0 1.2.8 1.8 1.6 1.8 1.5 0 2.2-1 2.5-1.8v-2.3h.2zm.8 2.5l.1 2h-.7l-.2-1.2c-.4.7-1.3 1.4-2.7 1.4-1.7 0-2.5-1.2-2.5-2.3 0-2 1.8-3.2 5.2-3v-.3c0-.8-.2-2.5-2.2-2.5a4 4 0 00-2.1.6l-.3-.6c.7-.5 1.7-.7 2.5-.7 2.4 0 2.9 1.8 2.9 3.3V63zM207.4 56.5v.8h-2.8V65h-.8v-7.7H201v-.8h6.4zM210.3 64.4h1.3c1.3 0 3-.4 3-2 0-1.7-1.8-2.1-3.1-2.1h-1.3v4.1zm0-7.9v3.1h1.4c1.9 0 3.9.5 3.9 2.8 0 .7-.3 1.3-.7 1.7-.9.8-2.3 1-3.5 1h-2v-8.6h.9zM222.6 57.2H221c-1 0-2.7.2-2.7 1.6 0 1.3 1.7 1.8 2.7 1.8h1.6v-3.4zm.8 7.8h-.8v-3.8H221c-.6 0-1 .1-1.5.4-.7.5-1 1.8-1.3 2.7-.2.3-.2.5-.4.6h-.9l.5-1c.5-.8.6-2 1.5-2.6.2-.2.5-.3.9-.4-1.2-.2-2.3-.9-2.3-2.1 0-.8.4-1.4 1-1.8.6-.4 1.5-.6 2.5-.6l2.5.2V65h-.1zM239.5 64.6c-.6.3-1.7.6-3.2.6-2.8 0-5.5-1.8-5.5-6 0-3.6 2.2-6.3 6-6.3 1.5 0 2.4.3 2.7.5l-.3.7c-.6-.3-1.4-.5-2.5-.5-3.2 0-5.1 2-5.1 5.5 0 3.3 1.8 5.4 5 5.4 1 0 2-.2 2.7-.5l.2.6zM246 56.5v.8h-2.7V65h-.8v-7.7h-2.8v-.8h6.3zM252.7 60.5c-2 0-4.3.2-4.3 2.3 0 1.2.8 1.8 1.6 1.8 1.5 0 2.2-1 2.5-1.8v-2.3h.2zm.8 2.5l.1 2h-.7l-.2-1.2c-.4.7-1.3 1.4-2.7 1.4-1.7 0-2.5-1.2-2.5-2.3 0-2 1.8-3.2 5.2-3v-.3c0-.8-.2-2.5-2.2-2.5a4 4 0 00-2.1.6l-.3-.6c.7-.5 1.7-.7 2.5-.7 2.4 0 2.9 1.8 2.9 3.3V63zM257.4 61.7v.7a3 3 0 002.9 2.2c2 0 3-1.6 3-3.9 0-1.9-1-3.6-3-3.6a3 3 0 00-2.7 2.3l-.2.7v1.6zm-.9-2.5v-2.7h.8v1.6a3.4 3.4 0 013.2-1.8c2.2 0 3.6 1.8 3.6 4.3 0 3-1.8 4.6-3.8 4.6-1.2 0-2.3-.6-2.9-1.6v4.9h-.8v-9.3h-.1zM267.6 56.5v7.8h3.4v-7.8h.9v7.8h3.4v-7.8h.8V65h-9.4v-8.5h.9zM280 56.5v7.6l1.6-2.7 3.2-4.9h.9V65h-.8v-4.2-3.4c-.6 1.2-1 2-1.7 2.9l-3.1 4.7h-1v-8.5h1zM294.5 60c0-1.2-.4-3-2.5-3-1.9 0-2.6 1.7-2.8 3h5.3zm-5.3.7c0 2.7 1.5 3.8 3.2 3.8a5 5 0 002.3-.5l.3.7a6 6 0 01-2.7.5c-2.4 0-3.9-1.8-3.9-4.2 0-3 1.6-4.6 3.8-4.6 2.8 0 3.3 2.6 3.3 3.8v.5h-6.3zM310.8 64.6c-.6.3-1.7.6-3.1.6-2.9 0-5.6-1.8-5.6-6 0-3.6 2.3-6.3 6-6.3 1.5 0 2.4.3 2.7.5l-.3.7c-.6-.3-1.4-.5-2.4-.5-3.2 0-5.2 2-5.2 5.5 0 3.3 1.8 5.4 5 5.4 1 0 2-.2 2.7-.5l.2.6zM318.5 60c0-1.2-.4-3-2.5-3-1.9 0-2.6 1.7-2.8 3h5.3zm-5.4.7c0 2.7 1.5 3.8 3.2 3.8a5 5 0 002.4-.5l.2.7a6 6 0 01-2.6.5c-2.5 0-4-1.8-4-4.2 0-3 1.6-4.6 3.8-4.6 2.8 0 3.3 2.6 3.3 3.8v.5h-6.3zM328 64.6c-.5.2-1.4.6-2.6.6-2.4 0-4-1.8-4-4.4 0-2.7 1.8-4.5 4.3-4.5 1 0 2 .3 2.2.5l-.3.7c-.4-.2-1-.5-2-.5-2.2 0-3.3 1.7-3.3 3.7 0 2.3 1.3 3.7 3.3 3.7 1 0 1.6-.3 2-.5l.3.7zM336 56.5v.8h-2.8V65h-.8v-7.7h-2.7v-.8h6.3zM339 61.7v.7a3 3 0 002.8 2.2c2 0 3-1.6 3-3.9 0-1.9-1-3.6-3-3.6a3 3 0 00-2.7 2.3l-.2.7v1.6zm-1-2.5v-2.7h.8l.1 1.6a3.4 3.4 0 013.2-1.8c2.2 0 3.6 1.8 3.6 4.3 0 3-1.8 4.6-3.9 4.6-1.2 0-2.2-.6-2.8-1.6v4.9h-.8v-9.3h-.1zM356 65h-.8v-8.5h.8V65zm-7-.7l1.3.1c1.3 0 2.8-.6 2.8-2.1 0-1.7-1.4-2.1-2.7-2.1H349v4.1zm0-7.8v3.1h1.4c1.8 0 3.6.7 3.6 2.7 0 .8-.3 1.4-.7 1.8-.8.8-2.1 1-3.2 1h-2v-8.6h1zM364.9 59.1c.3.2.9.2 1.5.2 2 0 3.4-1 3.4-3 0-1.8-1.4-2.6-3.3-2.6l-1.6.1v5.3zm-.9-5.9c.7-.2 1.6-.2 2.6-.2 1.4 0 2.5.3 3.2 1 .6.5.9 1.3.9 2.3 0 1-.3 1.8-.9 2.4-.7.9-2 1.3-3.4 1.3l-1.5-.1V65h-.8V53.2zM376.2 64.5c1.7 0 3.1-1.6 3.1-3.8 0-1.6-.8-3.7-3-3.7s-3.2 2-3.2 3.8c0 2.1 1.3 3.7 3 3.7zm-.1.7c-2.2 0-3.9-1.7-3.9-4.3 0-3 2-4.5 4-4.5 2.4 0 4 1.8 4 4.3 0 3.2-2.2 4.5-4.1 4.5zM388.7 64.6c-.4.2-1.3.6-2.5.6-2.4 0-4-1.8-4-4.4 0-2.7 1.7-4.5 4.3-4.5 1 0 1.9.3 2.2.5l-.3.7c-.4-.2-1.1-.5-2-.5-2.3 0-3.4 1.7-3.4 3.7 0 2.3 1.4 3.7 3.3 3.7 1 0 1.7-.3 2.1-.5l.3.7zM396.6 64.6c-.4.2-1.3.6-2.5.6-2.4 0-4-1.8-4-4.4 0-2.7 1.7-4.5 4.3-4.5 1 0 1.9.3 2.2.5l-.3.7c-.4-.2-1-.5-2-.5-2.3 0-3.4 1.7-3.4 3.7 0 2.3 1.4 3.7 3.3 3.7 1 0 1.7-.3 2.1-.5l.3.7zM399.7 56.5v7.6l1.5-2.7 3.3-4.9h.9V65h-.9v-4.2l.1-3.4-1.7 2.9-3.2 4.7h-.9v-8.5h1zM409.4 56.5v4.2l-.1 3.4 1.6-2.7 3.2-4.9h.9V65h-.8v-4.2-3.4c-.6 1.2-1 2-1.7 2.9l-3.1 4.7h-1v-8.5h1z"/>
</svg>
