<svg xmlns="http://www.w3.org/2000/svg" fill="none" viewBox="0 0 183 31">
  <path fill="#224CFF" d="M2.03 24.06H0V10.9h2.03v5.74h6.86V10.9h2.03v13.16H8.9v-6H2.03v6zM16.78 15.19l-1.85-.58c.3-1.33.94-2.32 1.9-2.97.96-.67 2.19-1 3.69-1 1.7 0 2.97.35 3.79 1.05.82.68 1.23 1.74 1.23 3.16v7.58h2.21v1.63h-4.4l.16-1.66v-1.76l-1.8 2.63a4.6 4.6 0 01-1.54.79c-.57.16-1.16.23-1.76.23a3.74 3.74 0 01-2.62-.94 3.41 3.41 0 01-1.04-2.66c0-1.1.33-1.9.99-2.37a7.2 7.2 0 012.37-1.1c.93-.25 1.89-.47 2.89-.66a5.64 5.64 0 002.5-1.08v-.55c0-.86-.25-1.54-.77-2.03-.5-.5-1.28-.76-2.35-.76-1.12 0-1.94.25-2.45.76-.52.5-.9 1.25-1.15 2.29zm.13 5.21c0 .75.21 1.34.64 1.76.45.4 1 .6 1.66.6a4 4 0 002.37-.76 6.2 6.2 0 001.93-2.52v-3.63c-.48.56-1.1.97-1.85 1.23l-2.19.74c-.69.23-1.3.53-1.81.9-.5.36-.75.93-.75 1.68zM30.02 17.48c0-1 .17-1.92.5-2.76A6.27 6.27 0 0134 11.17c.83-.36 1.7-.53 2.63-.53 1.42 0 2.68.38 3.76 1.15 1.1.78 1.8 1.81 2.08 3.11l-1.87.71a4.43 4.43 0 00-1.44-2.71 3.9 3.9 0 00-2.64-.92c-1.23 0-2.24.49-3.04 1.47-.79.97-1.18 2.3-1.18 4.03 0 1.74.41 3.09 1.23 4.05a3.84 3.84 0 003.02 1.42c1.06 0 1.95-.31 2.64-.95a5.1 5.1 0 001.41-2.78l1.87.7a5.09 5.09 0 01-2.05 3.22 6.87 6.87 0 01-6.4.68 6.47 6.47 0 01-3.47-3.58 7.35 7.35 0 01-.52-2.76zM51.37 24.06h-2.03V12.32h-4.86V10.9h11.75v1.42h-4.86v11.74zM60.2 15.19l-1.85-.58c.3-1.33.94-2.32 1.9-2.97.96-.67 2.19-1 3.68-1 1.71 0 2.97.35 3.8 1.05.81.68 1.22 1.74 1.22 3.16v7.58h2.22v1.63h-4.4l.15-1.66v-1.76l-1.79 2.63a4.6 4.6 0 01-1.55.79c-.57.16-1.15.23-1.76.23a3.74 3.74 0 01-2.61-.94 3.41 3.41 0 01-1.05-2.66c0-1.1.33-1.9 1-2.37a7.2 7.2 0 012.37-1.1c.92-.25 1.88-.47 2.88-.66a5.64 5.64 0 002.51-1.08v-.55c0-.86-.26-1.54-.77-2.03-.5-.5-1.28-.76-2.35-.76-1.12 0-1.94.25-2.46.76-.52.5-.9 1.25-1.15 2.29zm.13 5.21c0 .75.21 1.34.64 1.76.44.4 1 .6 1.65.6A4 4 0 0065 22a6.2 6.2 0 001.92-2.52v-3.63c-.48.56-1.1.97-1.84 1.23l-2.19.74c-.7.23-1.3.53-1.82.9-.5.36-.74.93-.74 1.68zM85.02 20.35c0 1.19-.43 2.11-1.28 2.76-.86.63-2.16.95-3.93.95h-5.4V10.9h5.16c1.7 0 2.91.29 3.66.87a2.8 2.8 0 011.12 2.34c0 .63-.18 1.22-.53 1.76-.34.53-.93.95-1.76 1.27 1.06.26 1.82.67 2.27 1.23a3 3 0 01.69 1.98zm-5.4-8.03h-3.17v4.34h3.36c.77 0 1.37-.2 1.82-.63.46-.44.7-.98.7-1.63 0-.68-.23-1.2-.67-1.55-.45-.35-1.13-.53-2.03-.53zm.22 5.42h-3.4v4.9h3.3c1.06 0 1.87-.2 2.42-.58.55-.39.83-1 .83-1.84 0-.76-.28-1.36-.83-1.8-.53-.45-1.3-.68-2.32-.68zM90.37 24.06h-2.03V10.9h2.03v5.74h6.87V10.9h2.02v13.16h-2.02v-6h-6.87v6zM105.58 24.06h-2.03V10.9h2.03v10.6l7.23-10.6h2.03v13.16h-2.03v-10.6l-7.23 10.6zM128.06 24.06l-6.92-6.24v6.24h-2.03V10.9h2.03v5.92l6.52-5.92h2.45l-6.97 6.26 7.5 6.9h-2.58zM135.67 24.06h-2.61v-2.53h2.61v2.53zM141.64 24.06h-2.03V10.9h10.7v13.16h-2.02V12.32h-6.65v11.74zM161.6 24.32a4.9 4.9 0 01-3.23-1.13 5.67 5.67 0 01-1.77-3.29v10.74h-2.03V10.9h2.03V15a5.6 5.6 0 011.77-3.23 4.75 4.75 0 013.17-1.13c.72 0 1.41.14 2.09.42.67.28 1.27.7 1.79 1.26a5.8 5.8 0 011.22 2.1c.33.87.49 1.87.49 3.03 0 1.16-.16 2.17-.49 3.03-.3.86-.7 1.58-1.22 2.16a5.2 5.2 0 01-3.82 1.68zm3.28-6.84c0-.91-.11-1.7-.34-2.37a5.06 5.06 0 00-.91-1.68 3.35 3.35 0 00-1.34-1 3.74 3.74 0 00-1.57-.35c-1.18 0-2.16.46-2.94 1.37-.77.91-1.15 2.26-1.15 4.03 0 1.77.4 3.12 1.18 4.05.78.93 1.78 1.4 3.01 1.4 1.09 0 2.03-.45 2.83-1.35.82-.9 1.23-2.28 1.23-4.1zM176.46 10.64a6.4 6.4 0 016.03 4.08c.34.84.51 1.76.51 2.76 0 1-.17 1.92-.5 2.76a6.25 6.25 0 01-3.47 3.58c-.81.33-1.66.5-2.57.5a6.6 6.6 0 01-4.65-1.9 7.16 7.16 0 01-1.41-2.18 7.35 7.35 0 01-.51-2.76 6.83 6.83 0 011.92-4.92 6.09 6.09 0 012.09-1.42 6.6 6.6 0 012.56-.5zm.03 1.36c-1.27 0-2.31.48-3.13 1.43-.8.93-1.2 2.28-1.2 4.05 0 1.65.4 2.97 1.2 3.97.82 1 1.86 1.5 3.13 1.5 1.28 0 2.3-.5 3.07-1.5.78-1 1.17-2.32 1.17-3.97 0-1.77-.4-3.12-1.17-4.05a3.75 3.75 0 00-3.07-1.43z"/>
</svg>
